<?xml version="1.0" encoding="UTF-8" standalone="no"?>
<svg
   version="1.1"
   viewBox="0 0 1000 1000"
   xml:space="preserve"
   id="svg17"
   sodipodi:docname="slon_icon.svg"
   width="1000"
   height="1000"
   inkscape:version="1.3 (0e150ed6c4, 2023-07-21)"
   inkscape:export-filename="slon.png"
   inkscape:export-xdpi="300"
   inkscape:export-ydpi="300"
   xmlns:inkscape="http://www.inkscape.org/namespaces/inkscape"
   xmlns:sodipodi="http://sodipodi.sourceforge.net/DTD/sodipodi-0.dtd"
   xmlns:xlink="http://www.w3.org/1999/xlink"
   xmlns="http://www.w3.org/2000/svg"
   xmlns:svg="http://www.w3.org/2000/svg"><sodipodi:namedview
   id="namedview17"
   pagecolor="#ffffff"
   bordercolor="#000000"
   borderopacity="0.25"
   inkscape:showpageshadow="2"
   inkscape:pageopacity="0.0"
   inkscape:pagecheckerboard="0"
   inkscape:deskcolor="#d1d1d1"
   inkscape:zoom="0.65524498"
   inkscape:cx="446.39793"
   inkscape:cy="602.82797"
   inkscape:window-width="2560"
   inkscape:window-height="1306"
   inkscape:window-x="0"
   inkscape:window-y="32"
   inkscape:window-maximized="1"
   inkscape:current-layer="svg17" />&#10;<defs
   id="defs10"><linearGradient
     id="linearGradient15-4-6"
     x1="468.35999"
     x2="526.07001"
     y1="166.10001"
     y2="256.98999"
     gradientUnits="userSpaceOnUse"><stop
       stop-color="#19e3bf"
       offset="0"
       id="stop1" /><stop
       stop-color="#15abbc"
       offset="1"
       id="stop2" /></linearGradient><linearGradient
     id="linearGradient23-4"
     x1="430.60001"
     x2="227.64999"
     y1="194.94"
     y2="301.84"
     gradientTransform="matrix(1.8486,0,0,1.3977,-980.65,-299.08)"
     gradientUnits="userSpaceOnUse"><stop
       stop-color="#15abbc"
       offset="0"
       id="stop3" /><stop
       stop-color="#15abbc"
       stop-opacity="0"
       offset="1"
       id="stop4" /></linearGradient><linearGradient
     id="linearGradient28"
     x1="-189.86"
     x2="-189.86"
     y1="1000.3"
     y2="896.19"
     gradientTransform="matrix(1.3972461,0,0,1.4802432,883.38675,-1102.6965)"
     gradientUnits="userSpaceOnUse"><stop
       stop-color="#19e3bf"
       offset="0"
       id="stop5" /><stop
       stop-color="#15abbc"
       offset="1"
       id="stop6" /></linearGradient><linearGradient
     id="linearGradient29"
     x1="254.13"
     x2="107.32"
     y1="272.95001"
     y2="389.62"
     gradientTransform="matrix(1.7620474,0,0,1.7170733,35.781555,-102.71055)"
     gradientUnits="userSpaceOnUse"><stop
       stop-color="#19e3bf"
       offset="0"
       id="stop7" /><stop
       stop-color="#15abbc"
       offset="1"
       id="stop8" /></linearGradient><linearGradient
     id="linearGradient16"
     x1="2236.2"
     x2="2236.2"
     y1="2218.8"
     y2="1996.8"
     gradientTransform="translate(-854.09,-1848.7)"
     gradientUnits="userSpaceOnUse"><stop
       stop-color="#15abbc"
       offset="0"
       id="stop9" /><stop
       stop-color="#19e3bf"
       offset="1"
       id="stop10"
       style="stop-color:#19e3bf;stop-opacity:1;" /></linearGradient><linearGradient
     id="linearGradient15"
     x1="430.60001"
     x2="227.64999"
     y1="194.94"
     y2="301.84"
     gradientTransform="matrix(1.9266,0,0,1.3986,-1002.2,-309.12)"
     gradientUnits="userSpaceOnUse"
     xlink:href="#linearGradient23-4" /></defs><g
   id="g17"
   transform="translate(0,61.617244)"><path
     d="M 742.24028,340.71369 C 795.46702,237.26049 640.90024,115.2633 552.47095,188.94012 c 60.82581,-19.1993 169.44839,17.99314 150.12377,124.12139 -19.5384,62.08159 9.24209,75.94946 39.6414,27.65547 z"
     fill="#15abbc"
     stroke-width="0.52377"
     id="path10" /><g
     id="use12-9-8"
     transform="matrix(-1.5323729,-0.77267744,-0.53890959,0.82704721,1264.5755,633.28792)"><path
       d="m 507.85,110.86 c 14.927,2.1399 28.295,7.6284 38.796,16.804 25.56,21.33 42.304,50.41 33.302,113.63 -18.695,124.54 -77.791,158.98 -142.8,146.96 -54.717,-10.116 -107.21,-45.138 -99.661,-122.82 -9.41,-98.057 98.332,-164.9 170.37,-154.57 z"
       fill="url(#linearGradient15-4-6)"
       stroke-width="0.9994"
       style="fill:url(#linearGradient15-4-6)"
       id="path11" /><ellipse
       transform="matrix(-0.95934,-0.28225,-0.29972,0.95403,0,0)"
       cx="-538.46997"
       cy="129.52"
       rx="81.027"
       ry="107.63"
       fill="url(#linearGradient23-4)"
       stroke-width="2.2483"
       style="fill:url(#linearGradient15)"
       id="ellipse11" /></g><use
     transform="matrix(-1,0,0,1,1227.6977,2.213948e-6)"
     xlink:href="#use12-9-8"
     id="use11"
     x="0"
     y="0" /><path
     d="m 621.74687,193.27211 c -75.67317,0 -162.35992,32.26782 -162.35992,177.79849 0,15.74469 -10.53616,31.9006 -8.79001,48.18184 -22.25443,21.3334 -34.19894,46.35668 -34.35462,71.9715 0.15443,42.60963 44.48292,82.50681 99.26435,106.94847 30.98787,58.02338 60.74278,98.48131 106.24383,98.48131 44.99459,0 68.71965,-39.53655 97.7543,-96.5308 57.41443,-24.17338 107.57228,-65.05352 107.74871,-108.90008 -0.0167,-28.38883 -14.51526,-56.00581 -41.31026,-78.68828 1.18273,-14.00639 -16.99672,-27.88526 -16.99672,-41.46396 0,-145.52847 -77.21541,-177.79849 -147.19706,-177.79849 z"
     fill="url(#linearGradient28)"
     stroke-width="1.51602"
     style="fill:url(#linearGradient28)"
     id="path12" /><path
     d="m 678.20545,582.49149 c 0,46.5744 -26.35911,94.37142 -58.87363,94.37142 -32.51454,0 -58.87365,-47.79592 -58.87365,-94.37142 0,-27.47845 -15.15455,-66.40148 4.86075,-66.40148 65.70366,22.89028 47.22075,10.75564 98.37077,-5.59014 19.27167,0 14.51628,45.81903 14.51628,71.99239 z"
     fill="#15abbc"
     stroke-width="1.66364"
     id="path13" /><path
     id="rect1-6-7-8"
     d="m 643.23019,529.2762 c 15.57282,116.66686 216.64942,115.53438 233.04731,-4.92605 -22.47133,59.30977 -141.37477,99.42246 -185.65946,2.05219 -19.29659,-62.16626 -50.20248,-55.09652 -47.38681,2.87386 z"
     fill="#ffffff"
     stroke-width="0.52377" /><use
     transform="matrix(-1,0,0,1,1230.4999,2.213948e-6)"
     fill="#f0f0f0"
     xlink:href="#rect1-6-7-8"
     id="use13"
     x="0"
     y="0" /><path
     d="M 268.98453,150.1721 C 125.60674,150.17255 9.3788665,268.04839 9.3788665,413.44493 9.5430841,547.72563 117.15871,649.67033 235.03675,682.78696 435.04956,726.31795 719.22095,682.9963 672.61148,429.26659 L 547.2506,422.24855 C 539.01347,531.74124 419.53383,616.48443 310.03118,616.90223 194.10427,616.9031 100.12774,522.66387 100.12774,406.4159 100.12737,290.16684 194.1022,204.54957 310.03118,204.56057 c 50.8096,-2.58315 75.05565,41.05165 108.27799,-3.35642 12.02236,-18.32959 9.40254,-39.34743 -5.85061,-46.94601 -9.04095,-4.47064 -20.97686,-3.35586 -31.9676,2.98577 -36.73025,-8.85276 -74.20463,-7.12161 -111.51607,-7.06038 z"
     fill="url(#linearGradient29)"
     stroke-width="2.1811"
     style="fill:url(#linearGradient29)"
     id="path14" /><ellipse
     id="path29"
     transform="matrix(0.96159881,-0.27445898,0.35141524,0.9362197,0,0)"
     cx="323.76785"
     cy="560.14624"
     rx="24.792215"
     ry="45.588272"
     fill="#ffffff"
     stroke-width="1.33879" /><ellipse
     id="path29-8"
     transform="matrix(0.99414282,0.10807433,0.14254053,0.98978897,0,0)"
     cx="463.5065"
     cy="406.1192"
     rx="21.264465"
     ry="28.29318"
     fill="#15abbc"
     stroke-width="0.976775" /><use
     transform="matrix(-1,0,0,1,1210.781,-0.32962865)"
     xlink:href="#path29"
     id="use15"
     x="0"
     y="0" /><use
     transform="matrix(-1,0,0,1,1209.6393,2.213948e-6)"
     xlink:href="#path29-8"
     id="use16"
     x="0"
     y="0" /><path
     id="path16"
     d="m 538.51199,367.26637 c -16.99155,-22.93316 -53.10428,-32.5724 -73.33701,-23.94909 3.08966,3.96334 6.17933,7.92654 9.26887,11.88989 19.30074,-2.7296 38.30361,-3.72387 66.21843,21.53241 2.5284,1.05485 5.0378,2.16169 7.51772,3.3387 -3.22281,-4.27053 -6.44552,-8.54094 -9.66833,-12.81125 z"
     fill="#15abbc"
     style="stroke-width:1.06822" /><use
     transform="matrix(-1,0,0,1,1200.1949,2.213948e-6)"
     xlink:href="#path16"
     id="use17"
     x="0"
     y="0" /></g></svg>
