<?xml version="1.0" encoding="UTF-8" standalone="no"?>
<svg
   version="1.1"
   viewBox="0 0 1996.2 498.05"
   xml:space="preserve"
   id="svg17"
   sodipodi:docname="slon_grad.svg"
   inkscape:version="1.3 (0e150ed6c4, 2023-07-21)"
   xmlns:inkscape="http://www.inkscape.org/namespaces/inkscape"
   xmlns:sodipodi="http://sodipodi.sourceforge.net/DTD/sodipodi-0.dtd"
   xmlns:xlink="http://www.w3.org/1999/xlink"
   xmlns="http://www.w3.org/2000/svg"
   xmlns:svg="http://www.w3.org/2000/svg"><sodipodi:namedview
   id="namedview17"
   pagecolor="#ffffff"
   bordercolor="#000000"
   borderopacity="0.25"
   inkscape:showpageshadow="2"
   inkscape:pageopacity="0.0"
   inkscape:pagecheckerboard="0"
   inkscape:deskcolor="#d1d1d1"
   inkscape:zoom="0.65524498"
   inkscape:cx="1020.9922"
   inkscape:cy="294.54632"
   inkscape:window-width="2560"
   inkscape:window-height="1306"
   inkscape:window-x="0"
   inkscape:window-y="32"
   inkscape:window-maximized="1"
   inkscape:current-layer="svg17" />&#10;<defs
   id="defs10"><linearGradient
     id="linearGradient15-4-6"
     x1="468.36"
     x2="526.07"
     y1="166.1"
     y2="256.99"
     gradientUnits="userSpaceOnUse"><stop
       stop-color="#19e3bf"
       offset="0"
       id="stop1" /><stop
       stop-color="#15abbc"
       offset="1"
       id="stop2" /></linearGradient><linearGradient
     id="linearGradient23-4"
     x1="430.6"
     x2="227.65"
     y1="194.94"
     y2="301.84"
     gradientTransform="matrix(1.8486 0 0 1.3977 -980.65 -299.08)"
     gradientUnits="userSpaceOnUse"><stop
       stop-color="#15abbc"
       offset="0"
       id="stop3" /><stop
       stop-color="#15abbc"
       stop-opacity="0"
       offset="1"
       id="stop4" /></linearGradient><linearGradient
     id="linearGradient28"
     x1="-189.86"
     x2="-189.86"
     y1="1000.3"
     y2="896.19"
     gradientTransform="matrix(1.3463 0 0 1.3463 842.11 -1139.3)"
     gradientUnits="userSpaceOnUse"><stop
       stop-color="#19e3bf"
       offset="0"
       id="stop5" /><stop
       stop-color="#15abbc"
       offset="1"
       id="stop6" /></linearGradient><linearGradient
     id="linearGradient29"
     x1="254.13"
     x2="107.32"
     y1="272.95"
     y2="389.62"
     gradientTransform="matrix(1.6978,0,0,1.5617,25.41,-229.8)"
     gradientUnits="userSpaceOnUse"><stop
       stop-color="#19e3bf"
       offset="0"
       id="stop7" /><stop
       stop-color="#15abbc"
       offset="1"
       id="stop8" /></linearGradient><linearGradient
     id="linearGradient16"
     x1="2236.2"
     x2="2236.2"
     y1="2218.8"
     y2="1996.8"
     gradientTransform="translate(-854.09,-1848.7)"
     gradientUnits="userSpaceOnUse"><stop
       stop-color="#15abbc"
       offset="0"
       id="stop9" /><stop
       stop-color="#19e3bf"
       offset="1"
       id="stop10" /></linearGradient><linearGradient
     id="linearGradient15"
     x1="430.6"
     x2="227.65"
     y1="194.94"
     y2="301.84"
     gradientTransform="matrix(1.9266 0 0 1.3986 -1002.2 -309.12)"
     gradientUnits="userSpaceOnUse"
     xlink:href="#linearGradient23-4" /></defs><path
   d="m706.11 173.5c51.286-94.092-97.645-205.05-182.85-138.04 58.608-17.462 163.27 16.365 144.65 112.89-18.826 56.464 8.9051 69.077 38.196 25.153z"
   fill="#15abbc"
   stroke-width=".49032"
   id="path10" /><g
   id="use12-9-8"
   transform="matrix(-1.4765 -.70276 -.51926 .75221 1209.4 439.6)"><path
     d="m507.85 110.86c14.927 2.1399 28.295 7.6284 38.796 16.804 25.56 21.33 42.304 50.41 33.302 113.63-18.695 124.54-77.791 158.98-142.8 146.96-54.717-10.116-107.21-45.138-99.661-122.82-9.41-98.057 98.332-164.9 170.37-154.57z"
     fill="url(#linearGradient15-4-6)"
     stroke-width=".9994"
     style="fill:url(#linearGradient15-4-6)"
     id="path11" /><ellipse
     transform="matrix(-.95934 -.28225 -.29972 .95403 0 0)"
     cx="-538.47"
     cy="129.52"
     rx="81.027"
     ry="107.63"
     fill="url(#linearGradient23-4)"
     stroke-width="2.2483"
     style="fill:url(#linearGradient15)"
     id="ellipse11" /></g><use
   transform="matrix(-1 0 0 1 1164.8 0)"
   xlink:href="#use12-9-8"
   id="use11" /><path
   d="m590.01 39.4c-72.914 0-156.44 29.348-156.44 161.71 0 14.32-10.152 29.014-8.4695 43.822-21.443 19.403-32.952 42.162-33.102 65.459 0.1488 38.754 42.861 75.041 95.645 97.271 29.858 52.773 58.528 89.57 102.37 89.57 43.354 0 66.214-35.959 94.19-87.796 55.321-21.986 103.65-59.167 103.82-99.046-0.016-25.82-13.986-50.938-39.804-71.568 1.1396-12.739-16.377-25.362-16.377-37.712 0-132.36-74.4-161.71-141.83-161.71z"
   fill="url(#linearGradient28)"
   stroke-width="1.4192"
   style="fill:url(#linearGradient28)"
   id="path12" /><path
   d="m644.41 393.4c0 42.36-25.398 85.832-56.727 85.832s-56.727-43.471-56.727-85.832c0-24.992-14.602-60.393 4.6835-60.393 63.308 20.819 45.499 9.7824 94.784-5.0843 18.569 0 13.987 41.673 13.987 65.478z"
   fill="#15abbc"
   stroke-width="1.5574"
   id="path13" /><path
   id="rect1-6-7-8"
   d="m610.71 345c15.005 106.11 208.75 105.08 224.55-4.4803-21.652 53.943-136.22 90.426-178.89 1.8665-18.593-56.541-48.372-50.111-45.659 2.6138z"
   fill="#ffffff"
   stroke-width=".49032" /><use
   transform="matrix(-1 0 0 1 1167.5 0)"
   fill="#f0f0f0"
   xlink:href="#rect1-6-7-8"
   id="use13" /><path
   d="m250.11 0.2c-138.15 4e-4 -250.14 107.21-250.14 239.45 0.15823 122.13 103.85 214.85 217.43 244.97 192.72 39.592 466.53 0.1904 421.62-230.58l-120.79-6.383c-7.9368 99.585-123.06 176.66-228.57 177.04-111.7 8e-4 -202.25-85.711-202.25-191.44-3.5e-4 -105.73 90.548-183.6 202.25-183.59 48.957-2.3494 72.319 37.337 104.33-3.0527 11.584-16.671 9.0597-35.787-5.6373-42.698-8.7113-4.0661-20.212-3.0522-30.802 2.7156-35.391-8.0517-71.499-6.4772-107.45-6.4215z"
   fill="url(#linearGradient29)"
   stroke-width="2.0418"
   style="fill:url(#linearGradient29)"
   id="path14" /><path
   d="m1078 339.2q16.294 0 27.735-3.8136 11.787-4.1603 16.641-8.6672 4.8536-4.8537 9.7073-8.6673 5.2004-4.1603 9.7073-4.1603 6.9338 0 12.134 5.2004 5.2003 5.2003 5.2003 12.134 0 14.908-23.922 28.775-23.575 13.868-58.244 13.868-44.03 0-73.152-25.655-28.775-26.002-28.775-65.524v-22.882q0-41.603 27.042-69.685t67.258-28.082q24.268 0 49.23 11.788l3.4669 1.3867q5.8937-8.3205 14.561-8.3205 10.054 0 13.521 5.8937 3.8136 5.8937 3.8136 16.988v29.122q0 22.882-17.334 22.882-6.2404 0-10.401-3.4669-3.8136-3.4669-4.8537-6.2404-0.6934-3.1202-1.7334-8.6673-2.0802-10.401-12.828-16.641-10.401-6.5871-19.415-8.3205-9.0139-1.7335-16.641-1.7335-26.348 0-43.683 18.028-17.334 17.681-17.334 45.07v22.188q0 26.002 18.375 41.603 18.721 15.601 49.923 15.601zm274.23-59.977q10.054 0 13.521 5.8938 3.8136 5.8937 3.8136 17.334v66.564h-163.64q-22.882 0-22.882-17.334 0-10.054 5.8937-13.521 5.8937-3.8136 16.988-3.8136h19.761v-132.78h-19.761q-22.882 0-22.882-17.334 0-10.054 5.8937-13.521 5.8937-3.8136 16.988-3.8136h74.192q22.882 0 22.882 17.334t-22.882 17.334h-19.761v132.78h74.538v-31.895q0-23.228 17.334-23.228zm131.4-117.18q7.6272 0 18.028 2.4268 10.401 2.0802 24.615 9.3607 14.561 7.2805 26.002 18.374 11.788 11.094 19.761 31.549 8.3205 20.108 8.3205 45.763 0 42.643-28.775 73.498-28.429 30.855-67.951 30.855-40.216 0-68.645-30.855-28.082-31.202-28.082-75.232 0-43.683 28.429-74.538 28.429-31.202 68.298-31.202zm0 34.669q-25.308 0-43.683 21.148-18.375 20.801-18.375 49.923 0 29.469 18.028 50.617 18.375 20.801 44.03 20.801 25.308 0 43.683-20.801 18.374-20.801 18.374-49.577 0-29.815-18.374-50.963-18.028-21.148-43.683-21.148zm286.37-29.815q22.882 0 22.882 17.334t-21.148 17.334v167.45h-34.322l-89.793-136.6v101.93h12.134q11.094 0 16.988 3.8136 5.8937 3.4669 5.8937 13.521 0 17.334-22.882 17.334h-44.723q-23.228 0-23.228-17.334t21.148-17.334v-132.78h-5.2004q-22.882 0-22.882-17.334 0-10.054 5.8937-13.521 5.8938-3.8136 16.988-3.8136h39.869l89.446 135.9v-101.23h-12.134q-22.882 0-22.882-17.334 0-10.054 5.8938-13.521 5.8937-3.8136 16.988-3.8136z"
   fill="url(#linearGradient16)"
   stroke-width="1.8057"
   style="fill:url(#linearGradient16)"
   aria-label="CLON"
   id="path15" /><ellipse
   id="path29"
   transform="matrix(.96557 -.26014 .36951 .92923 0 0)"
   cx="352.93"
   cy="378.35"
   rx="23.79"
   ry="41.775"
   fill="#ffffff"
   stroke-width="1.2554" /><ellipse
   id="path29-8"
   transform="matrix(.99478 .10208 .15082 .98856 0 0)"
   cx="458.31"
   cy="230.63"
   rx="20.476"
   ry="25.765"
   fill="#15abbc"
   stroke-width=".91467" /><use
   transform="matrix(-1 0 0 1 1148.5 -.2998)"
   xlink:href="#path29"
   id="use15" /><use
   transform="matrix(-1 0 0 1 1147.4 0)"
   xlink:href="#path29-8"
   id="use16" /><rect
   x="1811.9"
   y="374"
   width="184.27"
   height="39.659"
   rx="13.275"
   ry="13.275"
   fill="#15abbc"
   stroke-width=".92937"
   id="rect16" /><path
   id="path16"
   d="m509.81 197.65c-16.372-20.858-51.168-29.625-70.663-21.782 2.977 3.6047 5.954 7.2093 8.9309 10.814 18.597-2.4826 36.907-3.3869 63.804 19.584 2.4362 0.95941 4.8541 1.9661 7.2436 3.0366-3.1053-3.8841-6.2105-7.7681-9.3158-11.652z"
   fill="#15abbc" /><use
   transform="matrix(-1 0 0 1 1138.3 0)"
   xlink:href="#path16"
   id="use17" /></svg>
