<?xml version="1.0" encoding="UTF-8" standalone="no"?>
<svg
   version="1.1"
   viewBox="0 0 1789.2 498.05"
   xml:space="preserve"
   id="svg17"
   sodipodi:docname="slon.svg"
   width="1789.2"
   height="498.04999"
   inkscape:version="1.3 (0e150ed6c4, 2023-07-21)"
   inkscape:export-filename="slon.png"
   inkscape:export-xdpi="300"
   inkscape:export-ydpi="300"
   xmlns:inkscape="http://www.inkscape.org/namespaces/inkscape"
   xmlns:sodipodi="http://sodipodi.sourceforge.net/DTD/sodipodi-0.dtd"
   xmlns:xlink="http://www.w3.org/1999/xlink"
   xmlns="http://www.w3.org/2000/svg"
   xmlns:svg="http://www.w3.org/2000/svg"><sodipodi:namedview
   id="namedview17"
   pagecolor="#ffffff"
   bordercolor="#000000"
   borderopacity="0.25"
   inkscape:showpageshadow="2"
   inkscape:pageopacity="0.0"
   inkscape:pagecheckerboard="0"
   inkscape:deskcolor="#d1d1d1"
   inkscape:zoom="0.65524498"
   inkscape:cx="1020.2291"
   inkscape:cy="294.54632"
   inkscape:window-width="2560"
   inkscape:window-height="1306"
   inkscape:window-x="0"
   inkscape:window-y="32"
   inkscape:window-maximized="1"
   inkscape:current-layer="svg17" />&#10;<defs
   id="defs10"><linearGradient
     id="linearGradient15-4-6"
     x1="468.35999"
     x2="526.07001"
     y1="166.10001"
     y2="256.98999"
     gradientUnits="userSpaceOnUse"><stop
       stop-color="#19e3bf"
       offset="0"
       id="stop1" /><stop
       stop-color="#15abbc"
       offset="1"
       id="stop2" /></linearGradient><linearGradient
     id="linearGradient23-4"
     x1="430.60001"
     x2="227.64999"
     y1="194.94"
     y2="301.84"
     gradientTransform="matrix(1.8486,0,0,1.3977,-980.65,-299.08)"
     gradientUnits="userSpaceOnUse"><stop
       stop-color="#15abbc"
       offset="0"
       id="stop3" /><stop
       stop-color="#15abbc"
       stop-opacity="0"
       offset="1"
       id="stop4" /></linearGradient><linearGradient
     id="linearGradient28"
     x1="-189.86"
     x2="-189.86"
     y1="1000.3"
     y2="896.19"
     gradientTransform="matrix(1.3463,0,0,1.3463,842.11,-1139.3)"
     gradientUnits="userSpaceOnUse"><stop
       stop-color="#19e3bf"
       offset="0"
       id="stop5" /><stop
       stop-color="#15abbc"
       offset="1"
       id="stop6" /></linearGradient><linearGradient
     id="linearGradient29"
     x1="254.13"
     x2="107.32"
     y1="272.95001"
     y2="389.62"
     gradientTransform="matrix(1.6978,0,0,1.5617,25.41,-229.8)"
     gradientUnits="userSpaceOnUse"><stop
       stop-color="#19e3bf"
       offset="0"
       id="stop7" /><stop
       stop-color="#15abbc"
       offset="1"
       id="stop8" /></linearGradient><linearGradient
     id="linearGradient16"
     x1="2236.2"
     x2="2236.2"
     y1="2218.8"
     y2="1996.8"
     gradientTransform="translate(-854.09,-1848.7)"
     gradientUnits="userSpaceOnUse"><stop
       stop-color="#15abbc"
       offset="0"
       id="stop9" /><stop
       stop-color="#19e3bf"
       offset="1"
       id="stop10"
       style="stop-color:#19e3bf;stop-opacity:1;" /></linearGradient><linearGradient
     id="linearGradient15"
     x1="430.60001"
     x2="227.64999"
     y1="194.94"
     y2="301.84"
     gradientTransform="matrix(1.9266,0,0,1.3986,-1002.2,-309.12)"
     gradientUnits="userSpaceOnUse"
     xlink:href="#linearGradient23-4" /></defs><g
   id="g17"
   transform="matrix(0.84974394,0,0,0.84974394,42.684958,37.424088)"><path
     d="M 706.11,173.5 C 757.396,79.408 608.465,-31.55 523.26,35.46 c 58.608,-17.462 163.27,16.365 144.65,112.89 -18.826,56.464 8.9051,69.077 38.196,25.153 z"
     fill="#15abbc"
     stroke-width="0.49032"
     id="path10" /><g
     id="use12-9-8"
     transform="matrix(-1.4765,-0.70276,-0.51926,0.75221,1209.4,439.6)"><path
       d="m 507.85,110.86 c 14.927,2.1399 28.295,7.6284 38.796,16.804 25.56,21.33 42.304,50.41 33.302,113.63 -18.695,124.54 -77.791,158.98 -142.8,146.96 -54.717,-10.116 -107.21,-45.138 -99.661,-122.82 -9.41,-98.057 98.332,-164.9 170.37,-154.57 z"
       fill="url(#linearGradient15-4-6)"
       stroke-width="0.9994"
       style="fill:url(#linearGradient15-4-6)"
       id="path11" /><ellipse
       transform="matrix(-0.95934,-0.28225,-0.29972,0.95403,0,0)"
       cx="-538.46997"
       cy="129.52"
       rx="81.027"
       ry="107.63"
       fill="url(#linearGradient23-4)"
       stroke-width="2.2483"
       style="fill:url(#linearGradient15)"
       id="ellipse11" /></g><use
     transform="matrix(-1,0,0,1,1164.8,0)"
     xlink:href="#use12-9-8"
     id="use11" /><path
     d="m 590.01,39.4 c -72.914,0 -156.44,29.348 -156.44,161.71 0,14.32 -10.152,29.014 -8.4695,43.822 -21.443,19.403 -32.952,42.162 -33.102,65.459 0.1488,38.754 42.861,75.041 95.645,97.271 29.858,52.773 58.528,89.57 102.37,89.57 43.354,0 66.214,-35.959 94.19,-87.796 55.321,-21.986 103.65,-59.167 103.82,-99.046 -0.016,-25.82 -13.986,-50.938 -39.804,-71.568 1.1396,-12.739 -16.377,-25.362 -16.377,-37.712 0,-132.36 -74.4,-161.71 -141.83,-161.71 z"
     fill="url(#linearGradient28)"
     stroke-width="1.4192"
     style="fill:url(#linearGradient28)"
     id="path12" /><path
     d="m 644.41,393.4 c 0,42.36 -25.398,85.832 -56.727,85.832 -31.329,0 -56.727,-43.471 -56.727,-85.832 0,-24.992 -14.602,-60.393 4.6835,-60.393 63.308,20.819 45.499,9.7824 94.784,-5.0843 18.569,0 13.987,41.673 13.987,65.478 z"
     fill="#15abbc"
     stroke-width="1.5574"
     id="path13" /><path
     id="rect1-6-7-8"
     d="m 610.71,345 c 15.005,106.11 208.75,105.08 224.55,-4.4803 -21.652,53.943 -136.22,90.426 -178.89,1.8665 -18.593,-56.541 -48.372,-50.111 -45.659,2.6138 z"
     fill="#ffffff"
     stroke-width="0.49032" /><use
     transform="matrix(-1,0,0,1,1167.5,0)"
     fill="#f0f0f0"
     xlink:href="#rect1-6-7-8"
     id="use13" /><path
     d="M 250.11,0.2 C 111.96,0.2004 -0.03,107.41 -0.03,239.65 0.12823,361.78 103.82,454.5 217.4,484.62 c 192.72,39.592 466.53,0.1904 421.62,-230.58 l -120.79,-6.383 c -7.9368,99.585 -123.06,176.66 -228.57,177.04 -111.7,8e-4 -202.25,-85.711 -202.25,-191.44 -3.5e-4,-105.73 90.548,-183.6 202.25,-183.59 48.957,-2.3494 72.319,37.337 104.33,-3.0527 11.584,-16.671 9.0597,-35.787 -5.6373,-42.698 -8.7113,-4.0661 -20.212,-3.0522 -30.802,2.7156 -35.391,-8.0517 -71.499,-6.4772 -107.45,-6.4215 z"
     fill="url(#linearGradient29)"
     stroke-width="2.0418"
     style="fill:url(#linearGradient29)"
     id="path14" /><path
     d="m 1078,339.2 q 16.294,0 27.735,-3.8136 11.787,-4.1603 16.641,-8.6672 4.8536,-4.8537 9.7073,-8.6673 5.2004,-4.1603 9.7073,-4.1603 6.9338,0 12.134,5.2004 5.2003,5.2003 5.2003,12.134 0,14.908 -23.922,28.775 -23.575,13.868 -58.244,13.868 -44.03,0 -73.152,-25.655 -28.775,-26.002 -28.775,-65.524 v -22.882 q 0,-41.603 27.042,-69.685 27.042,-28.082 67.258,-28.082 24.268,0 49.23,11.788 l 3.4669,1.3867 q 5.8937,-8.3205 14.561,-8.3205 10.054,0 13.521,5.8937 3.8136,5.8937 3.8136,16.988 v 29.122 q 0,22.882 -17.334,22.882 -6.2404,0 -10.401,-3.4669 -3.8136,-3.4669 -4.8537,-6.2404 -0.6934,-3.1202 -1.7334,-8.6673 -2.0802,-10.401 -12.828,-16.641 -10.401,-6.5871 -19.415,-8.3205 -9.0139,-1.7335 -16.641,-1.7335 -26.348,0 -43.683,18.028 -17.334,17.681 -17.334,45.07 v 22.188 q 0,26.002 18.375,41.603 18.721,15.601 49.923,15.601 z m 274.23,-59.977 q 10.054,0 13.521,5.8938 3.8136,5.8937 3.8136,17.334 v 66.564 h -163.64 q -22.882,0 -22.882,-17.334 0,-10.054 5.8937,-13.521 5.8937,-3.8136 16.988,-3.8136 h 19.761 v -132.78 h -19.761 q -22.882,0 -22.882,-17.334 0,-10.054 5.8937,-13.521 5.8937,-3.8136 16.988,-3.8136 h 74.192 q 22.882,0 22.882,17.334 0,17.334 -22.882,17.334 h -19.761 v 132.78 h 74.538 v -31.895 q 0,-23.228 17.334,-23.228 z m 131.4,-117.18 q 7.6272,0 18.028,2.4268 10.401,2.0802 24.615,9.3607 14.561,7.2805 26.002,18.374 11.788,11.094 19.761,31.549 8.3205,20.108 8.3205,45.763 0,42.643 -28.775,73.498 -28.429,30.855 -67.951,30.855 -40.216,0 -68.645,-30.855 -28.082,-31.202 -28.082,-75.232 0,-43.683 28.429,-74.538 28.429,-31.202 68.298,-31.202 z m 0,34.669 q -25.308,0 -43.683,21.148 -18.375,20.801 -18.375,49.923 0,29.469 18.028,50.617 18.375,20.801 44.03,20.801 25.308,0 43.683,-20.801 18.374,-20.801 18.374,-49.577 0,-29.815 -18.374,-50.963 -18.028,-21.148 -43.683,-21.148 z M 1770,166.897 q 22.882,0 22.882,17.334 0,17.334 -21.148,17.334 v 167.45 h -34.322 l -89.793,-136.6 v 101.93 h 12.134 q 11.094,0 16.988,3.8136 5.8937,3.4669 5.8937,13.521 0,17.334 -22.882,17.334 h -44.723 q -23.228,0 -23.228,-17.334 0,-17.334 21.148,-17.334 v -132.78 h -5.2004 q -22.882,0 -22.882,-17.334 0,-10.054 5.8937,-13.521 5.8938,-3.8136 16.988,-3.8136 h 39.869 l 89.446,135.9 v -101.23 h -12.134 q -22.882,0 -22.882,-17.334 0,-10.054 5.8938,-13.521 5.8937,-3.8136 16.988,-3.8136 z"
     fill="url(#linearGradient16)"
     stroke-width="1.8057"
     style="fill:#19e3bf;fill-opacity:1"
     aria-label="CLON"
     id="path15" /><ellipse
     id="path29"
     transform="matrix(0.96557085,-0.26014023,0.36950889,0.9292272,0,0)"
     cx="352.92969"
     cy="378.35114"
     rx="23.78998"
     ry="41.775127"
     fill="#ffffff"
     stroke-width="1.2554" /><ellipse
     id="path29-8"
     transform="matrix(0.99477623,0.10207961,0.15082019,0.98856121,0,0)"
     cx="458.31174"
     cy="230.62971"
     rx="20.476078"
     ry="25.764967"
     fill="#15abbc"
     stroke-width="0.914671" /><use
     transform="matrix(-1,0,0,1,1148.5,-0.2998)"
     xlink:href="#path29"
     id="use15" /><use
     transform="matrix(-1,0,0,1,1147.4,0)"
     xlink:href="#path29-8"
     id="use16" /><rect
     x="1811.9"
     y="374"
     width="184.27"
     height="39.659"
     rx="13.275"
     ry="13.275"
     fill="#15abbc"
     stroke-width="0.92937"
     id="rect16"
     style="fill:#19e3bf;fill-opacity:1" /><path
     id="path16"
     d="m 509.81,197.65 c -16.372,-20.858 -51.168,-29.625 -70.663,-21.782 2.977,3.6047 5.954,7.2093 8.9309,10.814 18.597,-2.4826 36.907,-3.3869 63.804,19.584 2.4362,0.95941 4.8541,1.9661 7.2436,3.0366 -3.1053,-3.8841 -6.2105,-7.7681 -9.3158,-11.652 z"
     fill="#15abbc" /><use
     transform="matrix(-1,0,0,1,1138.3,0)"
     xlink:href="#path16"
     id="use17" /></g></svg>
