<?xml version="1.0" encoding="UTF-8" standalone="no"?>
<svg
   version="1.1"
   viewBox="0 0 1000 1000"
   xml:space="preserve"
   id="svg17"
   sodipodi:docname="slon_fav.svg"
   width="1000"
   height="1000"
   inkscape:version="1.3 (0e150ed6c4, 2023-07-21)"
   inkscape:export-filename="slon_icon.png"
   inkscape:export-xdpi="200"
   inkscape:export-ydpi="200"
   xmlns:inkscape="http://www.inkscape.org/namespaces/inkscape"
   xmlns:sodipodi="http://sodipodi.sourceforge.net/DTD/sodipodi-0.dtd"
   xmlns:xlink="http://www.w3.org/1999/xlink"
   xmlns="http://www.w3.org/2000/svg"
   xmlns:svg="http://www.w3.org/2000/svg"><sodipodi:namedview
   id="namedview17"
   pagecolor="#ffffff"
   bordercolor="#000000"
   borderopacity="0.25"
   inkscape:showpageshadow="2"
   inkscape:pageopacity="0.0"
   inkscape:pagecheckerboard="0"
   inkscape:deskcolor="#d1d1d1"
   inkscape:zoom="0.65524498"
   inkscape:cx="446.39793"
   inkscape:cy="602.82797"
   inkscape:window-width="2560"
   inkscape:window-height="1306"
   inkscape:window-x="0"
   inkscape:window-y="32"
   inkscape:window-maximized="1"
   inkscape:current-layer="g17" />&#10;<defs
   id="defs10"><linearGradient
     id="linearGradient15-4-6"
     x1="468.35999"
     x2="526.07001"
     y1="166.10001"
     y2="256.98999"
     gradientUnits="userSpaceOnUse"><stop
       stop-color="#19e3bf"
       offset="0"
       id="stop1" /><stop
       stop-color="#15abbc"
       offset="1"
       id="stop2" /></linearGradient><linearGradient
     id="linearGradient23-4"
     x1="430.60001"
     x2="227.64999"
     y1="194.94"
     y2="301.84"
     gradientTransform="matrix(1.8486,0,0,1.3977,-980.65,-299.08)"
     gradientUnits="userSpaceOnUse"><stop
       stop-color="#15abbc"
       offset="0"
       id="stop3" /><stop
       stop-color="#15abbc"
       stop-opacity="0"
       offset="1"
       id="stop4" /></linearGradient><linearGradient
     id="linearGradient28"
     x1="-189.86"
     x2="-189.86"
     y1="1000.3"
     y2="896.19"
     gradientTransform="matrix(1.4380695,0,0,1.5556153,906.89571,-1188.5543)"
     gradientUnits="userSpaceOnUse"><stop
       stop-color="#19e3bf"
       offset="0"
       id="stop5" /><stop
       stop-color="#15abbc"
       offset="1"
       id="stop6" /></linearGradient><linearGradient
     id="linearGradient29"
     x1="254.13"
     x2="107.32"
     y1="272.95001"
     y2="389.62"
     gradientTransform="matrix(1.8135292,0,0,1.8045044,34.525957,-137.65033)"
     gradientUnits="userSpaceOnUse"><stop
       stop-color="#19e3bf"
       offset="0"
       id="stop7" /><stop
       stop-color="#15abbc"
       offset="1"
       id="stop8" /></linearGradient><linearGradient
     id="linearGradient16"
     x1="2236.2"
     x2="2236.2"
     y1="2218.8"
     y2="1996.8"
     gradientTransform="translate(-854.09,-1848.7)"
     gradientUnits="userSpaceOnUse"><stop
       stop-color="#15abbc"
       offset="0"
       id="stop9" /><stop
       stop-color="#19e3bf"
       offset="1"
       id="stop10"
       style="stop-color:#19e3bf;stop-opacity:1;" /></linearGradient><linearGradient
     id="linearGradient15"
     x1="430.60001"
     x2="227.64999"
     y1="194.94"
     y2="301.84"
     gradientTransform="matrix(1.9266,0,0,1.3986,-1002.2,-309.12)"
     gradientUnits="userSpaceOnUse"
     xlink:href="#linearGradient23-4" /></defs><g
   id="g17"
   transform="matrix(1.010165,0,0,1.1895866,-4.0953362,-14.977828)"><path
     d="M 761.62538,328.35254 C 816.40725,219.63162 657.32447,91.422466 566.31154,168.85084 c 62.60297,-20.17692 174.3992,18.90932 154.50996,130.44149 -20.10926,65.24272 9.51211,79.81673 40.7996,29.06367 z"
     fill="#15abbc"
     stroke-width="0.544727"
     id="path10" /><g
     id="use12-9-8"
     transform="matrix(-1.5771445,-0.81202127,-0.55465498,0.8691595,1325.5819,635.82431)"><path
       d="m 507.85,110.86 c 14.927,2.1399 28.295,7.6284 38.796,16.804 25.56,21.33 42.304,50.41 33.302,113.63 -18.695,124.54 -77.791,158.98 -142.8,146.96 -54.717,-10.116 -107.21,-45.138 -99.661,-122.82 -9.41,-98.057 98.332,-164.9 170.37,-154.57 z"
       fill="url(#linearGradient15-4-6)"
       stroke-width="0.9994"
       style="fill:url(#linearGradient15-4-6)"
       id="path11" /><ellipse
       transform="matrix(-0.95934,-0.28225,-0.29972,0.95403,0,0)"
       cx="-538.46997"
       cy="129.52"
       rx="81.027"
       ry="107.63"
       fill="url(#linearGradient23-4)"
       stroke-width="2.2483"
       style="fill:url(#linearGradient15)"
       id="ellipse11" /></g><use
     transform="matrix(-1,0,0,1,1258.922,1.8292107e-6)"
     xlink:href="#use12-9-8"
     id="use11"
     x="0"
     y="0" /><path
     d="m 637.6115,173.40341 c -77.88412,0 -167.1036,33.91086 -167.1036,186.85178 0,16.5464 -10.84401,33.52494 -9.04683,50.6352 -22.90465,22.41967 -35.19814,48.71711 -35.35836,75.6362 0.15893,44.77928 45.78257,86.70796 102.16457,112.39417 31.89323,60.97786 62.51751,103.49587 109.34796,103.49587 46.30921,0 70.72744,-41.54971 100.6104,-101.44604 59.09192,-25.40427 110.71524,-68.36596 110.89682,-114.44515 -0.0171,-29.83435 -14.93935,-58.85756 -42.51723,-82.69499 1.21729,-14.71959 -17.49331,-29.30516 -17.49331,-43.57526 0,-152.93861 -79.47143,-186.85178 -151.49774,-186.85178 z"
     fill="url(#linearGradient28)"
     stroke-width="1.57667"
     style="fill:url(#linearGradient28)"
     id="path12" /><path
     d="m 695.71964,582.44139 c 0,48.94591 -27.12924,99.1767 -60.59375,99.1767 -33.46452,0 -60.59377,-50.22963 -60.59377,-99.1767 0,-28.87762 -15.59732,-69.78258 5.00278,-69.78258 67.62333,24.05584 48.60039,11.30332 101.24488,-5.87478 19.83473,0 14.9404,48.1521 14.9404,75.65815 z"
     fill="#15abbc"
     stroke-width="1.73021"
     id="path13" /><path
     id="rect1-6-7-8"
     d="m 659.7225,526.51643 c 16.02782,122.6074 222.9793,121.41727 239.85629,-5.17687 -23.12788,62.32976 -145.50534,104.48494 -191.08389,2.15668 -19.86038,-65.33169 -51.66927,-57.90196 -48.77132,3.02019 z"
     fill="#ffffff"
     stroke-width="0.544727" /><use
     transform="matrix(-1,0,0,1,1261.8494,1.8292108e-6)"
     fill="#f0f0f0"
     xlink:href="#rect1-6-7-8"
     id="use13"
     x="0"
     y="0" /><path
     d="M 274.54246,128.10879 C 126.97559,128.10927 7.3518606,251.98721 7.3518606,404.78718 7.5208756,545.9053 118.28072,653.0409 239.60283,687.84379 c 205.85661,45.74754 498.33067,0.22 450.3594,-266.42934 L 560.93867,414.03906 C 552.46087,529.10699 429.49038,618.16521 316.78838,618.60429 197.47441,618.6052 100.75216,519.56741 100.75216,397.40023 100.75178,275.23191 197.47229,185.2551 316.78838,185.26667 c 52.29411,-2.71469 77.24855,43.14195 111.44156,-3.52733 12.37362,-19.26292 9.67725,-41.35096 -6.02155,-49.33645 -9.30509,-4.69828 -21.58974,-3.52673 -32.9016,3.1378 -37.8034,-9.30352 -76.37267,-7.48424 -114.77425,-7.41989 z"
     fill="url(#linearGradient29)"
     stroke-width="2.26837"
     style="fill:url(#linearGradient29)"
     id="path14" /><ellipse
     id="path29"
     transform="matrix(0.96005907,-0.27979739,0.34503033,0.93859154,0,0)"
     cx="341.87204"
     cy="557.9447"
     rx="25.557497"
     ry="47.788509"
     fill="#ffffff"
     stroke-width="1.39171" /><ellipse
     id="path29-8"
     transform="matrix(0.99389549,0.11032569,0.13965504,0.99020022,0,0)"
     cx="479.09857"
     cy="396.40198"
     rx="21.891197"
     ry="29.721487"
     fill="#15abbc"
     stroke-width="1.01578" /><use
     transform="matrix(-1,0,0,1,1241.5545,-0.34641317)"
     xlink:href="#path29"
     id="use15"
     x="0"
     y="0" /><use
     transform="matrix(-1,0,0,1,1240.3794,1.8292108e-6)"
     xlink:href="#path29-8"
     id="use16"
     x="0"
     y="0" /><path
     id="path16"
     d="m 551.94474,356.25725 c -17.48799,-24.1009 -54.65584,-34.23095 -75.47971,-25.16855 3.17994,4.16515 6.35987,8.33016 9.53968,12.49532 19.86465,-2.86859 39.42274,-3.9135 68.15315,22.62881 2.60228,1.10855 5.18499,2.27175 7.73736,3.5087 -3.31697,-4.48799 -6.63384,-8.97583 -9.95081,-13.46358 z"
     fill="#15abbc"
     style="stroke-width:1.11096" /><use
     transform="matrix(-1,0,0,1,1230.6591,1.8292108e-6)"
     xlink:href="#path16"
     id="use17"
     x="0"
     y="0" /></g></svg>
